{
  "accessors": [
    {
      "bufferView": 2,
      "componentType": 5126,
      "count": 2574,
      "max": [
        14.039839744567871,
        7.9682698249816895,
        6.0768299102783203
      ],
      "min": [
        -14.039839744567871,
        -3.7524700164794922,
        -44.998958587646484
      ],
      "type": "VEC3"
    },
    {
      "bufferView": 2,
      "byteOffset": 30888,
      "componentType": 5126,
      "count": 2574,
      "max": [
        1,
        0.9999815821647644,
        0.9993281364440918
      ],
      "min": [
        -1,
        -0.9999958872795105,
        -0.99947375059127808
      ],
      "type": "VEC3"
    },
    {
      "bufferView": 3,
      "componentType": 5126,
      "count": 2574,
      "max": [
        0.99999868869781494,
        0.99997520446777344,
        0.99982148408889771,
        1
      ],
      "min": [
        -0.99994760751724243,
        -0.99999868869781494,
        -0.99982368946075439,
        -1
      ],
      "type": "VEC4"
    },
    {
      "bufferView": 1,
      "componentType": 5126,
      "count": 2574,
      "max": [
        0.95745998620986938,
        0.99782001972198486
      ],
      "min": [
        0.0015899999998509884,
        0.00023999999393709004
      ],
      "type": "VEC2"
    },
    {
      "bufferView": 0,
      "componentType": 5125,
      "count": 12288,
      "max": [
        2573
      ],
      "min": [
        0
      ],
      "type": "SCALAR"
    },
    {
      "bufferView": 2,
      "byteOffset": 61776,
      "componentType": 5126,
      "count": 79,
      "max": [
        1,
        1,
        0.31804999709129333
      ],
      "min": [
        -1,
        -1,
        0
      ],
      "type": "VEC3"
    },
    {
      "bufferView": 2,
      "byteOffset": 62724,
      "componentType": 5126,
      "count": 79,
      "max": [
        1,
        1,
        1
      ],
      "min": [
        -1,
        -1,
        -1
      ],
      "type": "VEC3"
    },
    {
      "bufferView": 1,
      "byteOffset": 20592,
      "componentType": 5126,
      "count": 79,
      "max": [
        0.98521000146865845,
        0.41741999983787537
      ],
      "min": [
        0.80823999643325806,
        0.23986999690532684
      ],
      "type": "VEC2"
    },
    {
      "bufferView": 0,
      "byteOffset": 49152,
      "componentType": 5125,
      "count": 198,
      "max": [
        78
      ],
      "min": [
        0
      ],
      "type": "SCALAR"
    },
    {
      "bufferView": 2,
      "byteOffset": 63672,
      "componentType": 5126,
      "count": 302,
      "max": [
        1.6074299812316895,
        7.3113298416137695,
        0
      ],
      "min": [
        -1.6074299812316895,
        -1.3954900503158569,
        -14.818260192871094
      ],
      "type": "VEC3"
    },
    {
      "bufferView": 2,
      "byteOffset": 67296,
      "componentType": 5126,
      "count": 302,
      "max": [
        0.99999028444290161,
        0.99989539384841919,
        1
      ],
      "min": [
        -0.99999028444290161,
        -0.99983346462249756,
        -1
      ],
      "type": "VEC3"
    },
    {
      "bufferView": 3,
      "byteOffset": 41184,
      "componentType": 5126,
      "count": 302,
      "max": [
        0.99996215105056763,
        0.99998670816421509,
        0.82565760612487793,
        1
      ],
      "min": [
        -1,
        -0.99997210502624512,
        -0.99981868267059326,
        -1
      ],
      "type": "VEC4"
    },
    {
      "bufferView": 1,
      "byteOffset": 21224,
      "componentType": 5126,
      "count": 302,
      "max": [
        0.30816999077796936,
        0.98870998620986938
      ],
      "min": [
        0.12445999681949615,
        0.80498999357223511
      ],
      "type": "VEC2"
    },
    {
      "bufferView": 0,
      "byteOffset": 49944,
      "componentType": 5125,
      "count": 768,
      "max": [
        301
      ],
      "min": [
        0
      ],
      "type": "SCALAR"
    },
    {
      "bufferView": 2,
      "byteOffset": 70920,
      "componentType": 5126,
      "count": 962,
      "max": [
        0.95105999708175659,
        0.95225000381469727,
        0.77692002058029175
      ],
      "min": [
        -0.95105999708175659,
        -0.95225000381469727,
        -0.77692002058029175
      ],
      "type": "VEC3"
    },
    {
      "bufferView": 2,
      "byteOffset": 82464,
      "componentType": 5126,
      "count": 962,
      "max": [
        1,
        1,
        1
      ],
      "min": [
        -1,
        -1,
        -1
      ],
      "type": "VEC3"
    },
    {
      "bufferView": 3,
      "byteOffset": 46016,
      "componentType": 5126,
      "count": 962,
      "max": [
        0.94169175624847412,
        0.99999988079071045,
        0.99996232986450195,
        1
      ],
      "min": [
        -0.78853613138198853,
        -0.27165687084197998,
        -0.99995940923690796,
        1
      ],
      "type": "VEC4"
    },
    {
      "bufferView": 1,
      "byteOffset": 23640,
      "componentType": 5126,
      "count": 962,
      "max": [
        0.30399999022483826,
        0.50765997171401978
      ],
      "min": [
        0.1723099946975708,
        0.25529000163078308
      ],
      "type": "VEC2"
    },
    {
      "bufferView": 0,
      "byteOffset": 53016,
      "componentType": 5125,
      "count": 4920,
      "max": [
        961
      ],
      "min": [
        0
      ],
      "type": "SCALAR"
    },
    {
      "bufferView": 2,
      "byteOffset": 94008,
      "componentType": 5126,
      "count": 1884,
      "max": [
        0.95105999708175659,
        0.95225000381469727,
        0.5542299747467041
      ],
      "min": [
        -0.95105999708175659,
        -0.95225000381469727,
        -12.683429718017578
      ],
      "type": "VEC3"
    },
    {
      "bufferView": 2,
      "byteOffset": 116616,
      "componentType": 5126,
      "count": 1884,
      "max": [
        1,
        1,
        1
      ],
      "min": [
        -1,
        -1,
        -1
      ],
      "type": "VEC3"
    },
    {
      "bufferView": 3,
      "byteOffset": 61408,
      "componentType": 5126,
      "count": 1884,
      "max": [
        0.93372142314910889,
        0.99999946355819702,
        0.99996232986450195,
        1
      ],
      "min": [
        -0.47848606109619141,
        -0.24689462780952454,
        -0.99996238946914673,
        -1
      ],
      "type": "VEC4"
    },
    {
      "bufferView": 1,
      "byteOffset": 31336,
      "componentType": 5126,
      "count": 1884,
      "max": [
        0.30399999022483826,
        0.50765997171401978
      ],
      "min": [
        0.1723099946975708,
        0.25529000163078308
      ],
      "type": "VEC2"
    },
    {
      "bufferView": 0,
      "byteOffset": 72696,
      "componentType": 5125,
      "count": 9840,
      "max": [
        1883
      ],
      "min": [
        0
      ],
      "type": "SCALAR"
    },
    {
      "bufferView": 2,
      "byteOffset": 139224,
      "componentType": 5126,
      "count": 224,
      "max": [
        0.47383999824523926,
        0.67565000057220459,
        0.98616999387741089
      ],
      "min": [
        -37.961078643798828,
        -3.5389800071716309,
        -13.716219902038574
      ],
      "type": "VEC3"
    },
    {
      "bufferView": 2,
      "byteOffset": 141912,
      "componentType": 5126,
      "count": 224,
      "max": [
        0.99998337030410767,
        0.99942761659622192,
        0.85486721992492676
      ],
      "min": [
        -0.99998337030410767,
        -0.99942761659622192,
        -1
      ],
      "type": "VEC3"
    },
    {
      "bufferView": 3,
      "byteOffset": 91552,
      "componentType": 5126,
      "count": 224,
      "max": [
        0.99942177534103394,
        0.99926209449768066,
        0.61027002334594727,
        1
      ],
      "min": [
        -0.99942183494567871,
        -0.9991118311882019,
        -0.94635838270187378,
        -1
      ],
      "type": "VEC4"
    },
    {
      "bufferView": 1,
      "byteOffset": 46408,
      "componentType": 5126,
      "count": 224,
      "max": [
        0.63340997695922852,
        0.99437999725341797
      ],
      "min": [
        0.41657999157905579,
        0.75609999895095825
      ],
      "type": "VEC2"
    },
    {
      "bufferView": 0,
      "byteOffset": 112056,
      "componentType": 5125,
      "count": 480,
      "max": [
        223
      ],
      "min": [
        0
      ],
      "type": "SCALAR"
    },
    {
      "bufferView": 2,
      "byteOffset": 144600,
      "componentType": 5126,
      "count": 84,
      "max": [
        6.0298299789428711,
        1.0000100135803223,
        0.23999999463558197
      ],
      "min": [
        -5.5537099838256836,
        -2.8245201110839844,
        -24.261270523071289
      ],
      "type": "VEC3"
    },
    {
      "bufferView": 2,
      "byteOffset": 145608,
      "componentType": 5126,
      "count": 84,
      "max": [
        0.86966478824615479,
        0.99958443641662598,
        1
      ],
      "min": [
        -1,
        -0.99020260572433472,
        -1
      ],
      "type": "VEC3"
    },
    {
      "bufferView": 1,
      "byteOffset": 48200,
      "componentType": 5126,
      "count": 84,
      "max": [
        0.292930006980896,
        0.79839998483657837
      ],
      "min": [
        0.1492999941110611,
        0.5416100025177002
      ],
      "type": "VEC2"
    },
    {
      "bufferView": 0,
      "byteOffset": 113976,
      "componentType": 5125,
      "count": 144,
      "max": [
        83
      ],
      "min": [
        0
      ],
      "type": "SCALAR"
    }
  ],
  "asset": {
    "extras": {
      "author": "AzurPoly (https://sketchfab.com/VapTor)",
      "license": "CC-BY-NC-4.0 (http://creativecommons.org/licenses/by-nc/4.0/)",
      "source": "https://sketchfab.com/3d-models/dassault-mirage-iiie-c2035ae1f2cc4fe2a0a50d3d0f64d83f",
      "title": "Dassault Mirage IIIE"
    },
    "generator": "Sketchfab-9.31.0",
    "version": "2.0"
  },
  "bufferViews": [
    {
      "buffer": 0,
      "byteLength": 114552,
      "byteOffset": 0,
      "name": "floatBufferViews",
      "target": 34963
    },
    {
      "buffer": 0,
      "byteLength": 48872,
      "byteOffset": 114552,
      "byteStride": 8,
      "name": "floatBufferViews",
      "target": 34962
    },
    {
      "buffer": 0,
      "byteLength": 146616,
      "byteOffset": 163424,
      "byteStride": 12,
      "name": "floatBufferViews",
      "target": 34962
    },
    {
      "buffer": 0,
      "byteLength": 95136,
      "byteOffset": 310040,
      "byteStride": 16,
      "name": "floatBufferViews",
      "target": 34962
    }
  ],
  "buffers": [
    {
      "byteLength": 405176,
      "uri": "scene.bin"
    }
  ],
  "images": [
    {
      "uri": "textures/Plane_0_baseColor.png"
    },
    {
      "uri": "textures/MirageIIIE_metallicRoughness.png"
    },
    {
      "uri": "textures/MirageIIIE_normal.png"
    }
  ],
  "materials": [
    {
      "doubleSided": true,
      "name": "Plane_0",
      "pbrMetallicRoughness": {
        "baseColorFactor": [
          1,
          1,
          1,
          1
        ],
        "baseColorTexture": {
          "index": 0,
          "texCoord": 0
        },
        "metallicFactor": 0,
        "roughnessFactor": 0.59999999999999998
      }
    },
    {
      "doubleSided": true,
      "emissiveFactor": [
        0,
        0,
        0
      ],
      "name": "MirageIIIE",
      "normalTexture": {
        "index": 2,
        "scale": 1,
        "texCoord": 0
      },
      "occlusionTexture": {
        "index": 1,
        "strength": 1,
        "texCoord": 0
      },
      "pbrMetallicRoughness": {
        "baseColorFactor": [
          1,
          1,
          1,
          1
        ],
        "baseColorTexture": {
          "index": 0,
          "texCoord": 0
        },
        "metallicFactor": 1,
        "metallicRoughnessTexture": {
          "index": 1,
          "texCoord": 0
        },
        "roughnessFactor": 1
      }
    }
  ],
  "meshes": [
    {
      "name": "Circle_0",
      "primitives": [
        {
          "attributes": {
            "NORMAL": 1,
            "POSITION": 0,
            "TANGENT": 2,
            "TEXCOORD_0": 3
          },
          "indices": 4,
          "material": 1,
          "mode": 4
        }
      ]
    },
    {
      "name": "Plane_0",
      "primitives": [
        {
          "attributes": {
            "NORMAL": 6,
            "POSITION": 5,
            "TEXCOORD_0": 7
          },
          "indices": 8,
          "material": 0,
          "mode": 4
        }
      ]
    },
    {
      "name": "Circle.003_0",
      "primitives": [
        {
          "attributes": {
            "NORMAL": 10,
            "POSITION": 9,
            "TANGENT": 11,
            "TEXCOORD_0": 12
          },
          "indices": 13,
          "material": 1,
          "mode": 4
        }
      ]
    },
    {
      "name": "Circle.001_0",
      "primitives": [
        {
          "attributes": {
            "NORMAL": 15,
            "POSITION": 14,
            "TANGENT": 16,
            "TEXCOORD_0": 17
          },
          "indices": 18,
          "material": 1,
          "mode": 4
        }
      ]
    },
    {
      "name": "Circle.002_0",
      "primitives": [
        {
          "attributes": {
            "NORMAL": 20,
            "POSITION": 19,
            "TANGENT": 21,
            "TEXCOORD_0": 22
          },
          "indices": 23,
          "material": 1,
          "mode": 4
        }
      ]
    },
    {
      "name": "Circle.004_0",
      "primitives": [
        {
          "attributes": {
            "NORMAL": 25,
            "POSITION": 24,
            "TANGENT": 26,
            "TEXCOORD_0": 27
          },
          "indices": 28,
          "material": 1,
          "mode": 4
        }
      ]
    },
    {
      "name": "Plane.001_0",
      "primitives": [
        {
          "attributes": {
            "NORMAL": 30,
            "POSITION": 29,
            "TEXCOORD_0": 31
          },
          "indices": 32,
          "material": 0,
          "mode": 4
        }
      ]
    }
  ],
  "nodes": [
    {
      "children": [
        1
      ],
      "name": "RootNode (gltf orientation matrix)",
      "rotation": [
        -0.70710678118654746,
        -0,
        -0,
        0.70710678118654757
      ]
    },
    {
      "children": [
        2
      ],
      "name": "RootNode (model correction matrix)"
    },
    {
      "children": [
        3
      ],
      "name": "Root"
    },
    {
      "children": [
        4,
        5,
        7,
        9,
        11,
        13,
        15
      ],
      "matrix": [
        0.19026000000000004,
        0,
        -0,
        0,
        0,
        -0.0053900000000000007,
        0.19018000000000002,
        0,
        -0,
        -0.19018000000000002,
        -0.0053900000000000007,
        0,
        0,
        -3.6713300000000002,
        1.1341600000000001,
        1
      ],
      "name": "Circle"
    },
    {
      "mesh": 0,
      "name": "Circle_0"
    },
    {
      "children": [
        6
      ],
      "matrix": [
        0.51127,
        0,
        -0,
        0,
        -0,
        0.82215000000000005,
        -0.026710000000000005,
        0,
        -0,
        0.026710000000000005,
        0.82215000000000005,
        0,
        0,
        -2.3321799999999997,
        -7.4718100000000005,
        1
      ],
      "name": "Plane"
    },
    {
      "mesh": 1,
      "name": "Plane_0"
    },
    {
      "children": [
        8
      ],
      "matrix": [
        0.27512000000000003,
        -0,
        -0,
        0,
        0,
        0.011310000000000002,
        -0.27489000000000002,
        0,
        0,
        0.27489000000000002,
        0.011310000000000002,
        0,
        -0,
        -1.55402,
        -7.84809,
        1
      ],
      "name": "Circle.003"
    },
    {
      "mesh": 2,
      "name": "Circle.003_0"
    },
    {
      "children": [
        10
      ],
      "matrix": [
        -0,
        -0.78155999999999992,
        0.025390000000000006,
        0,
        0,
        -0.025390000000000006,
        -0.78155999999999992,
        0,
        0.50792000000000004,
        -0,
        0,
        0,
        -0,
        -5.54549,
        -8.6909699999999983,
        1
      ],
      "name": "Circle.001"
    },
    {
      "mesh": 3,
      "name": "Circle.001_0"
    },
    {
      "children": [
        12
      ],
      "matrix": [
        -0,
        -1.29365,
        0.042030000000000012,
        0,
        0,
        -0.042030000000000012,
        -1.29365,
        0,
        0.82630000000000003,
        -0,
        0,
        0,
        5.0111699999999999,
        -5.5444399999999998,
        -25.771870000000003,
        1
      ],
      "name": "Circle.002"
    },
    {
      "mesh": 4,
      "name": "Circle.002_0"
    },
    {
      "children": [
        14
      ],
      "matrix": [
        0.25425999999999999,
        0,
        -0,
        0,
        0,
        -0.0082600000000000017,
        -0.25412000000000001,
        0,
        -0,
        0.25412000000000001,
        -0.0082600000000000017,
        0,
        4.7656799999999997,
        -2.04114,
        -25.88908,
        1
      ],
      "name": "Circle.004"
    },
    {
      "mesh": 5,
      "name": "Circle.004_0"
    },
    {
      "children": [
        16
      ],
      "matrix": [
        0.10120000000000001,
        -0.48138000000000009,
        0.015640000000000001,
        0,
        0,
        -0.015980000000000005,
        -0.49190000000000006,
        0,
        0.48164000000000001,
        0.10115,
        -0.0032900000000000013,
        0,
        5.4350500000000004,
        -2.3593599999999997,
        -25.559880000000003,
        1
      ],
      "name": "Plane.001"
    },
    {
      "mesh": 6,
      "name": "Plane.001_0"
    }
  ],
  "samplers": [
    {
      "magFilter": 9729,
      "minFilter": 9987,
      "wrapS": 10497,
      "wrapT": 10497
    }
  ],
  "scene": 0,
  "scenes": [
    {
      "name": "OSG_Scene",
      "nodes": [
        0
      ]
    }
  ],
  "textures": [
    {
      "sampler": 0,
      "source": 0
    },
    {
      "sampler": 0,
      "source": 1
    },
    {
      "sampler": 0,
      "source": 2
    }
  ]
}

